<svg xmlns="http://www.w3.org/2000/svg" width="223.049" height="60.607" viewBox="0 0 223.049 60.607">
  <g id="belher_logo_h" transform="translate(-308 -140.479)">
    <path id="Path_30" data-name="Path 30" d="M135.667,69.271h1.727l1.555-2.936h-1.727Z" transform="translate(268.501 121.166)" fill="#fff"/>
    <path id="Path_31" data-name="Path 31" d="M11.047,75.56h.1l1.025,3.013H10Zm-.426-2.038L7.947,80.976l-.617.173.123.728h2.4l.124-.728-.816-.173.519-1.482h2.8l.506,1.482-.815.173.124.728h3.05l.123-.728-.611-.173-2.613-7.454Z" transform="translate(305.866 119.074)" fill="#fff"/>
    <g id="Group_5" data-name="Group 5" transform="translate(308 140.479)">
      <g id="Group_6" data-name="Group 6">
        <path id="Path_32" data-name="Path 32" d="M56.586,81.172a5.325,5.325,0,0,1-1.334.572,6.165,6.165,0,0,1-1.624.212,4.088,4.088,0,0,1-2.75-.827,3.028,3.028,0,0,1-.96-2.427v-.549a5.308,5.308,0,0,1,1.077-3.584,3.852,3.852,0,0,1,3.073-1.239,8.814,8.814,0,0,1,1.266.091,6.845,6.845,0,0,1,1.16.262l.13,1.791-.957.136-.519-1.216a4.077,4.077,0,0,0-.6-.108,5.688,5.688,0,0,0-.622-.035,3.424,3.424,0,0,0-.93.13,4.04,4.04,0,0,0-.861.352,10.459,10.459,0,0,0-.263,1.331,11.553,11.553,0,0,0-.1,1.54v.821a2.742,2.742,0,0,0,.627,1.933,2.094,2.094,0,0,0,1.614.679,3.506,3.506,0,0,0,.359-.018,3.449,3.449,0,0,0,.364-.055V78.769l-.883-.21.123-.729h3.366l.123.729-.877.21Z" transform="translate(-14.533 -21.349)" fill="#fff"/>
        <path id="Path_33" data-name="Path 33" d="M93.039,74.461l-.883-.21.123-.729h3.452a3.506,3.506,0,0,1,2.149.572,1.977,1.977,0,0,1,.76,1.688,2.232,2.232,0,0,1-.352,1.269,2.452,2.452,0,0,1-1.031.849l-.038.118,1.557,2.915.759.216-.123.729H97.5l-1.915-3.65h-.7v2.711l.877.21-.123.729H92.279l-.123-.729.883-.21Zm1.852-.018v2.865h.451a5.812,5.812,0,0,0,.754-.043,1.973,1.973,0,0,0,.506-.123,3.8,3.8,0,0,0,.118-.584,5.179,5.179,0,0,0,.043-.663,1.4,1.4,0,0,0-.383-1.145,1.856,1.856,0,0,0-1.173-.306Z" transform="translate(-26.831 -21.406)" fill="#fff"/>
        <path id="Path_34" data-name="Path 34" d="M134.866,74.46l-.883-.21.123-.729h3.366l.123.729-.877.21v6.478l.877.211-.123.729h-3.366l-.123-.729.883-.211Z" transform="translate(-39.008 -21.405)" fill="#fff"/>
        <path id="Path_35" data-name="Path 35" d="M170.934,78.09a5.333,5.333,0,0,1,1.031-3.551,3.817,3.817,0,0,1,3.075-1.211,7.453,7.453,0,0,1,1.153.093,5.936,5.936,0,0,1,1.089.271l.13,1.791-.958.135-.524-1.228a2.467,2.467,0,0,0-.486-.1,4.424,4.424,0,0,0-.571-.038,3.309,3.309,0,0,0-.929.136,3.049,3.049,0,0,0-.795.346,10.942,10.942,0,0,0-.259,1.321,11.2,11.2,0,0,0-.1,1.55v.821a2.8,2.8,0,0,0,.607,1.949,2.333,2.333,0,0,0,1.808.663,3.967,3.967,0,0,0,1.115-.173,5.24,5.24,0,0,0,1.114-.469v.778a4.848,4.848,0,0,1-1.275.572,5.277,5.277,0,0,1-1.479.212,4.072,4.072,0,0,1-2.794-.846,3.14,3.14,0,0,1-.948-2.47Z" transform="translate(-49.766 -21.349)" fill="#fff"/>
        <path id="Path_36" data-name="Path 36" d="M215.853,81.957a4.1,4.1,0,0,1-2.817-.846,3.226,3.226,0,0,1-.944-2.531v-.488a5.332,5.332,0,0,1,1.025-3.6,3.751,3.751,0,0,1,2.976-1.165,4.157,4.157,0,0,1,2.826.846,3.208,3.208,0,0,1,.96,2.538V77.2a5.414,5.414,0,0,1-1.007,3.569,3.728,3.728,0,0,1-3.018,1.192m2.173-4.971a3.242,3.242,0,0,0-.548-2.038,1.92,1.92,0,0,0-1.613-.7,3.066,3.066,0,0,0-.88.123,2.553,2.553,0,0,0-.676.3,11.568,11.568,0,0,0-.238,1.192,10.3,10.3,0,0,0-.125,1.618V78.3a3.049,3.049,0,0,0,.6,2.012,1.939,1.939,0,0,0,1.564.723,3.048,3.048,0,0,0,.923-.136,2.164,2.164,0,0,0,.634-.29,10.036,10.036,0,0,0,.243-1.258,10.679,10.679,0,0,0,.116-1.546Z" transform="translate(-61.749 -21.35)" fill="#fff"/>
        <path id="Path_37" data-name="Path 37" d="M255.762,74.46l-.883-.21.123-.729h3.366l.123.729-.877.21v6.5h1.643l.512-1.192.951.136-.154,1.976H255l-.123-.729.883-.211Z" transform="translate(-74.206 -21.405)" fill="#fff"/>
        <path id="Path_38" data-name="Path 38" d="M294.034,81.149l.617-.173,2.674-7.454h1.624l2.612,7.454.611.173-.123.729H299l-.124-.729.815-.173-.506-1.482h-2.8l-.519,1.482.815.173-.123.729h-2.4Zm2.667-2.575h2.173L297.85,75.56h-.1Z" transform="translate(-85.606 -21.406)" fill="#fff"/>
        <path id="Path_39" data-name="Path 39" d="M20.806,37.769H0V0H19.635a53.169,53.169,0,0,1,5.229,1.213,7.768,7.768,0,0,1,5.6,6.614A8.4,8.4,0,0,1,26.827,16.5c-.259.181-.5.394-.768.607a23.459,23.459,0,0,1,2.591,1.556c3.241,2.553,3.829,6.084,3.242,9.932a9.44,9.44,0,0,1-6.473,7.936c-1.494.539-3.075.834-4.614,1.242M9.74,29.777c3.144,0,6.126.174,9.075-.053,2.553-.195,3.718-1.729,3.71-4.128a3.847,3.847,0,0,0-3.732-4.184c-2.986-.23-6-.056-9.053-.056Zm0-14.948a3.085,3.085,0,0,0,.451.1c1.513.009,3.027.05,4.539,0a21.132,21.132,0,0,0,3.917-.315,3.255,3.255,0,0,0,2.389-3.366C21,9.533,20.049,8,18.481,7.9c-2.893-.183-5.8-.052-8.747-.052Z" fill="#fff"/>
        <path id="Path_40" data-name="Path 40" d="M268.36,0h20.217c.519.1,1.033.242,1.556.306,7.319.9,11.41,6.688,9.553,13.553a9.249,9.249,0,0,1-5.406,6.33c2.9.951,4.165,3.062,4.795,5.616.353,1.438.408,2.948.671,4.411.447,2.524.951,5.036,1.434,7.553H291.8a8.463,8.463,0,0,1-.589-1.664c-.327-2.366-.536-4.75-.877-7.114-.427-2.96-1.733-4.635-4.168-4.835-2.65-.218-5.328-.05-8.139-.05V37.769h-9.67c.018-2.736.053-5.471.05-8.206Q268.4,14.778,268.36,0m9.717,16.3c3.2,0,6.269.18,9.3-.062,2.068-.164,3-1.682,3.119-4.023.092-1.9-.96-3.746-2.865-3.916-3.152-.279-6.345-.076-9.558-.076Z" transform="translate(-78.131)" fill="#fff" fill-rule="evenodd"/>
        <path id="Path_41" data-name="Path 41" d="M85.876,37.769H55.983c.02-2.737.056-5.471.052-8.206Q56.024,14.778,55.983,0H85.289V8.011H65.726v6.567H83.646v7.587H65.754V29.4H85.876Z" transform="translate(-16.299)" fill="#fff" fill-rule="evenodd"/>
        <path id="Path_42" data-name="Path 42" d="M244.743,37.769H214.85c.02-2.737.055-5.471.052-8.206Q214.889,14.778,214.85,0h29.308V8.011H224.591v6.567h17.923v7.587H224.619V29.4h20.124Z" transform="translate(-62.552)" fill="#fff" fill-rule="evenodd"/>
        <path id="Path_43" data-name="Path 43" d="M167.3,37.769h-9.67V0h9.67V13.692h12.6V0h9.379a12.724,12.724,0,0,1,.133,1.328q.011,17.557,0,35.118a12.669,12.669,0,0,1-.133,1.323H179.9V22.315H167.3Z" transform="translate(-45.892)" fill="#fff" fill-rule="evenodd"/>
        <path id="Path_44" data-name="Path 44" d="M119.163,0V29.3h17.289v8.467H109.493c.017-2.737.052-5.471.05-8.206q-.015-14.784-.05-29.562Z" transform="translate(-31.878)" fill="#fff" fill-rule="evenodd"/>
      </g>
    </g>
  </g>
</svg>
